<?xml version="1.0" encoding="utf-8"?>
<!-- Generator: Adobe Illustrator 24.1.0, SVG Export Plug-In . SVG Version: 6.00 Build 0)  -->
<svg version="1.1" id="Layer_1" xmlns="http://www.w3.org/2000/svg" xmlns:xlink="http://www.w3.org/1999/xlink" x="0px" y="0px"
	 viewBox="0 0 300 300" style="enable-background:new 0 0 300 300;" xml:space="preserve">
<style type="text/css">
	.st0{fill:#FFFFFF;stroke:#2F292B;stroke-miterlimit:10;}
	.st1{fill:#E60026;}
	.st2{fill:#E60000;}
	.st3{fill:#BB0000;}
	.st4{fill:#6D1D1D;}
	.st5{fill:#9A0000;}
	.st6{fill:#FFE65E;stroke:#000000;stroke-width:5;stroke-miterlimit:10;}
</style>
<polyline class="st1" points="193.5,80.2 150.3,78.6 150.3,146.2 202.3,146.2 202.1,112.4 "/>
<polygon class="st2" points="204.1,150 267.8,150 266,182.6 250.4,213.2 193,216.6 "/>
<polyline class="st1" points="43.7,215 100.3,222.3 128.8,273.8 121.7,275.7 73.6,255.6 "/>
<polyline class="st3" points="146.4,78.6 102.5,81.3 95.9,112.4 90.9,150 146.4,150 "/>
<polyline class="st2" points="75.8,46.7 124.5,24.3 132.4,28.1 109.6,55.9 102.5,81.3 40.1,84.9 "/>
<polyline class="st3" points="193.4,216.6 184.9,243.5 159.8,273.9 195.6,265.2 236.2,237.8 253.1,218.2 "/>
<polyline class="st4" points="24,152.6 89.7,153.8 101.3,216.6 39.9,211 26.3,177.2 "/>
<polyline class="st4" points="146.4,275.7 146.5,221.2 104.4,221.2 114.8,248.4 128.8,273.8 "/>
<polyline class="st3" points="146.4,22.7 157.5,23.6 171.9,38.2 191.6,76.6 148.5,75.7 "/>
<polyline class="st4" points="106.2,79.4 145.7,76.6 146.4,26.1 137.9,24.3 114.5,51.9 104.8,78.6 "/>
<polyline class="st5" points="197,83.4 202.2,133.1 204.1,150 271,150 266,115.5 252.6,84.9 "/>
<polyline class="st5" points="95.9,152.6 146.4,153.8 146.5,221.2 101.3,216.6 95.9,185.2 90.9,160.7 "/>
<polygon class="st2" points="147.5,148.6 211.9,149.9 206.5,184.9 190.3,221.2 142.8,216.4 "/>
<polyline class="st2" points="164.9,29 194.1,81.8 245.7,81.8 229.4,54.6 197.2,36.1 166.4,25.6 "/>
<polyline class="st2" points="150.3,221.2 190.5,221.2 182.4,246.6 159.3,275.7 146.4,275.7 "/>
<polyline class="st2" points="40.1,84.9 99.1,81.5 95.5,115.5 90.9,152.6 24,150 28.1,114.3 "/>
<path d="M273.6,147.2c0-0.3,0-0.6,0-0.9c0-0.7,0-1.4-0.1-2.1c0-0.6-0.1-1.2-0.1-1.8c0-0.4,0-0.8-0.1-1.2c0-0.6-0.1-1.3-0.1-1.9
	c0,0,0,0,0,0c-2.4-30.7-15.3-59.2-36.8-81.2c-24-24.6-55.9-38.1-89.8-38.1c-33.9,0-65.9,13.5-89.9,38.1
	c-22,22.5-34.9,51.7-36.9,83.1c0,0.4,0,0.7-0.1,1.1c0,0.6-0.1,1.3-0.1,1.9c0,0.7-0.1,1.4-0.1,2.1c0,0.3,0,0.6,0,0.9
	c0,0.9,0,1.9,0,2.8c0,0.9,0,1.9,0,2.8c0,0.3,0,0.6,0,0.9c0,0.7,0,1.4,0.1,2.1c0,0.6,0.1,1.2,0.1,1.8c0,0.4,0,0.8,0.1,1.2
	c0,0.6,0.1,1.3,0.1,1.9c0,0,0,0,0,0c2.4,30.7,15.3,59.2,36.8,81.2c24,24.5,55.9,38.1,89.9,38.1c33.9,0,65.8-13.5,89.8-38.1
	c21.5-22,34.3-50.4,36.8-81.1c0-0.1,0-0.1,0-0.2c0-0.6,0.1-1.2,0.1-1.8c0-0.4,0.1-0.9,0.1-1.3c0-0.6,0.1-1.1,0.1-1.7
	c0-0.7,0.1-1.4,0.1-2.2c0-0.3,0-0.6,0-0.9c0-0.9,0-1.9,0-2.8C273.6,149.1,273.6,148.1,273.6,147.2z M123.9,29.9
	c-7.2,6.7-13.7,16.5-19.3,29.3c-2.4,5.5-4.5,11.5-6.4,17.8c-17.4,1-34.4,2.6-50.9,4.7C64.8,55.3,92.1,36.2,123.9,29.9z M27.1,144
	c0-0.3,0-0.5,0-0.8c0-0.6,0.1-1.2,0.1-1.9c0-0.3,0-0.7,0.1-1c0.1-0.7,0.1-1.5,0.2-2.2c0-0.5,0.1-0.9,0.1-1.4c0-0.4,0.1-0.7,0.1-1.1
	c0.1-0.9,0.2-1.8,0.3-2.6c0-0.2,0.1-0.5,0.1-0.7c0.1-0.6,0.2-1.1,0.3-1.7c0-0.1,0-0.3,0.1-0.4c0.2-1.1,0.3-2.1,0.5-3.1
	c0-0.2,0.1-0.4,0.1-0.6c0.3-1.6,0.7-3.3,1-4.9c0.1-0.4,0.2-0.8,0.3-1.2c0.1-0.4,0.2-0.8,0.3-1.1c0.2-0.8,0.4-1.6,0.6-2.3
	c0.1-0.2,0.1-0.4,0.2-0.6c2.6-9.1,6.2-17.8,10.6-26C59.6,87.8,77.5,86,96,84.9c-4.7,18.5-7.4,39.4-7.6,61.3H27.1
	C27.1,145.4,27.1,144.7,27.1,144z M30.8,180.6c0-0.1-0.1-0.2-0.1-0.4c-0.2-0.7-0.4-1.5-0.5-2.2c-0.1-0.3-0.1-0.5-0.2-0.8
	c-0.2-0.8-0.3-1.5-0.5-2.3c-0.1-0.4-0.2-0.8-0.2-1.2c-0.1-0.5-0.2-0.9-0.3-1.4c-0.1-0.6-0.2-1.3-0.3-1.9c-0.1-0.5-0.2-0.9-0.2-1.4
	c-0.1-0.5-0.1-0.9-0.2-1.4c-0.1-0.4-0.1-0.9-0.2-1.3c-0.1-0.6-0.2-1.3-0.2-1.9c-0.1-0.5-0.1-0.9-0.2-1.4c0-0.4-0.1-0.8-0.1-1.2
	c-0.1-0.8-0.1-1.5-0.2-2.3c0-0.3,0-0.6-0.1-0.9c0-0.7-0.1-1.3-0.1-2c0-0.2,0-0.5,0-0.7c0-0.7-0.1-1.5-0.1-2.2h61.4
	c0.3,21.9,2.9,42.8,7.6,61.3c-18.5-1.1-36.5-2.9-53.8-5.4C37.3,200.7,33.4,190.9,30.8,180.6z M47.4,218.2
	c16.4,2.1,33.4,3.7,50.9,4.8c1.9,6.3,4,12.3,6.4,17.8c5.5,12.8,12.1,22.7,19.3,29.3C92.1,263.8,64.8,244.7,47.4,218.2z M142.8,271.9
	c-11.5-2.2-22.7-14.4-31.3-34.3c-1.9-4.5-3.7-9.3-5.3-14.3c12,0.6,24.2,0.9,36.6,0.9V271.9z M142.8,216.6
	c-13.2-0.1-26.2-0.4-38.9-1.1c-5-18.4-7.7-39.5-8-61.7h46.9L142.8,216.6L142.8,216.6z M142.8,146.2H95.9c0.3-22.2,3.1-43.3,8-61.7
	c12.7-0.7,25.7-1,38.9-1.1V146.2z M142.8,75.7c-12.4,0.1-24.6,0.4-36.6,1c1.6-5,3.4-9.8,5.3-14.3c8.6-19.9,19.8-32.1,31.3-34.3V75.7
	z M245.7,81.8c-16.4-2.1-33.4-3.7-50.9-4.7c-1.9-6.3-4-12.3-6.4-17.8c-5.5-12.8-12.1-22.7-19.3-29.3
	C200.9,36.2,228.3,55.3,245.7,81.8z M150.3,28.1c11.5,2.2,22.7,14.4,31.3,34.3c1.9,4.5,3.7,9.3,5.3,14.3c-12-0.6-24.2-0.9-36.6-1
	V28.1z M150.3,83.4c13.2,0.1,26.1,0.4,38.9,1.1c4.9,18.4,7.7,39.5,8,61.7h-46.9V83.4z M150.3,153.8L150.3,153.8h46.9
	c-0.3,22.2-3.1,43.3-8,61.7c-12.7,0.7-25.7,1-38.8,1.1L150.3,153.8L150.3,153.8z M150.3,271.9v-47.6c12.4-0.1,24.6-0.4,36.6-0.9
	c-1.6,5-3.4,9.8-5.3,14.3C173,257.5,161.8,269.7,150.3,271.9z M169.2,270.1c7.2-6.6,13.7-16.5,19.3-29.3c2.4-5.5,4.5-11.5,6.4-17.8
	c17.5-1,34.5-2.6,50.9-4.8C228.3,244.7,200.9,263.8,169.2,270.1z M265.9,156.1c0,0.2,0,0.5,0,0.7c0,0.7-0.1,1.4-0.1,2.1
	c0,0.3,0,0.6-0.1,0.8c-0.1,0.8-0.1,1.6-0.2,2.4c0,0.4-0.1,0.7-0.1,1.1c-0.1,0.6-0.1,1.1-0.2,1.7c-0.1,0.5-0.1,0.9-0.2,1.4
	c-0.1,0.6-0.2,1.2-0.2,1.8c-0.1,0.4-0.1,0.7-0.2,1.1c-0.1,0.7-0.2,1.5-0.4,2.2c-0.1,0.3-0.1,0.6-0.2,0.9c-0.1,0.6-0.2,1.3-0.4,1.9
	c0,0.3-0.1,0.5-0.1,0.8c-0.2,0.9-0.4,1.7-0.6,2.6c0,0.1,0,0.2-0.1,0.3c-2.6,11.4-6.7,22.1-12.2,32c-17.3,2.4-35.2,4.2-53.8,5.4
	c4.7-18.5,7.4-39.4,7.6-61.3H266C266,154.6,266,155.3,265.9,156.1z M204.7,146.2c-0.3-21.9-2.9-42.8-7.6-61.3
	c18.5,1.1,36.5,2.9,53.8,5.3c4.5,8.2,8.1,17,10.7,26.3c0,0,0,0.1,0,0.1c0.3,0.9,0.5,1.8,0.7,2.7c0,0.2,0.1,0.4,0.1,0.6
	c0.2,0.6,0.3,1.3,0.5,2c0.1,0.3,0.1,0.6,0.2,0.9c0.2,0.7,0.3,1.4,0.5,2.2c0.1,0.4,0.2,0.8,0.3,1.3c0.1,0.4,0.2,0.8,0.2,1.2
	c0.1,0.7,0.3,1.4,0.4,2.2c0.1,0.4,0.1,0.8,0.2,1.2c0.1,0.5,0.1,1,0.2,1.4c0.1,0.4,0.1,0.8,0.2,1.2c0.1,0.7,0.2,1.4,0.3,2.1
	c0.1,0.5,0.1,0.9,0.2,1.4c0,0.4,0.1,0.8,0.1,1.2c0.1,0.8,0.1,1.5,0.2,2.3c0,0.3,0,0.6,0.1,0.9c0,0.6,0.1,1.3,0.1,2
	c0,0.3,0,0.5,0,0.8c0,0.7,0.1,1.5,0.1,2.2L204.7,146.2L204.7,146.2z"/>
<polygon class="st6" points="216.8,77.7 238.9,69.8 246,39.9 254.3,69.5 279.5,77.7 253,86.4 247.1,113.3 239.6,86.4 "/>
<polygon class="st6" points="33.2,238.3 55.4,230.4 62.4,200.5 70.8,230 95.9,238.3 69.4,247 63.5,273.9 56,247 "/>
</svg>
